<?xml version="1.0" encoding="utf-8"?>
<!-- Generator: Adobe Illustrator 16.0.0, SVG Export Plug-In . SVG Version: 6.00 Build 0)  -->
<!DOCTYPE svg PUBLIC "-//W3C//DTD SVG 1.1//EN" "http://www.w3.org/Graphics/SVG/1.1/DTD/svg11.dtd">
<svg version="1.1" id="图层_2" xmlns="http://www.w3.org/2000/svg" xmlns:xlink="http://www.w3.org/1999/xlink" x="0px" y="0px"
	 width="115.667px" height="64px" viewBox="0 0 115.667 64" enable-background="new 0 0 115.667 64" xml:space="preserve">
<line fill="#FFFFFF" stroke="#000000" stroke-miterlimit="10" x1="51.542" y1="34.138" x2="57.333" y2="25.333"/>
<line fill="#FFFFFF" stroke="#000000" stroke-miterlimit="10" x1="58.5" y1="38.5" x2="64.333" y2="30.5"/>
<polygon points="65.833,25.333 68.667,17.5 61.417,22.5 65.042,22.333 "/>
<path fill="none" stroke="#E60012" stroke-width="2" stroke-miterlimit="10" d="M5.833,43.5c0,0-5.333-13.333,12.333-27.5
	S56.5,2.167,63.667,3s19.833,2.333,33.5,12.833S116.667,37.333,112.5,48S97.834,59.001,95,59.167c0,0-7.167-0.668-15.167-3.834
	s-11.498-3.999-18.416-5.166c-6.917-1.167-14.917,1-21.917,3s-12,3-18.667,3S6.468,46.382,5.833,43.5z"/>
<line stroke="#000000" stroke-miterlimit="10" x1="50.333" y1="42.5" x2="65.042" y2="22.333"/>
<ellipse fill="none" stroke="#000000" stroke-miterlimit="10" cx="57.657" cy="32.488" rx="3.219" ry="2.754"/>
</svg>
