<?xml version="1.0" encoding="utf-8"?>
<!-- Generator: Adobe Illustrator 16.0.0, SVG Export Plug-In . SVG Version: 6.00 Build 0)  -->
<!DOCTYPE svg PUBLIC "-//W3C//DTD SVG 1.1//EN" "http://www.w3.org/Graphics/SVG/1.1/DTD/svg11.dtd">
<svg version="1.1" id="图层_2" xmlns="http://www.w3.org/2000/svg" xmlns:xlink="http://www.w3.org/1999/xlink" x="0px" y="0px"
	 width="94.286px" height="85.035px" viewBox="0 0 94.286 85.035" enable-background="new 0 0 94.286 85.035" xml:space="preserve">
<path fill="none" stroke="#000000" stroke-width="2" stroke-miterlimit="10" d="M47.333,23.417c0,0,9.333,2.417,8.417,18.667
	s-6.79,18.916-8.854,19c-2.063,0.084-8.23-3.333-8.563-18.833S47.333,23.417,47.333,23.417z"/>
<path fill="none" stroke="#000000" stroke-width="2" stroke-miterlimit="10" d="M59.833,45.083c0,0,22,10.083,33.25,20.75"/>
<path fill="none" stroke="#000000" stroke-width="2" stroke-miterlimit="10" d="M34,44.25c0,0-20.333,7.084-34,19.667"/>
<polygon points="48.5,0 50.75,14 47.667,9.917 44.417,14 "/>
<line stroke="#000000" stroke-width="2" stroke-miterlimit="10" x1="47.333" y1="23.417" x2="47.667" y2="9.917"/>
<text transform="matrix(1 0 0 1 34 75)" font-family="'AdobeSongStd-Light-GBpc-EUC-H'" font-size="13">注记</text>
</svg>
