<?xml version="1.0" encoding="utf-8"?>
<!-- Generator: Adobe Illustrator 16.0.0, SVG Export Plug-In . SVG Version: 6.00 Build 0)  -->
<!DOCTYPE svg PUBLIC "-//W3C//DTD SVG 1.1//EN" "http://www.w3.org/Graphics/SVG/1.1/DTD/svg11.dtd">
<svg version="1.1" id="图层_2" xmlns="http://www.w3.org/2000/svg" xmlns:xlink="http://www.w3.org/1999/xlink" x="0px" y="0px"
	 width="79.209px" height="77.312px" viewBox="0 0 79.209 77.312" enable-background="new 0 0 79.209 77.312" xml:space="preserve">
<polygon points="14.813,36 0,39.312 14.813,42.625 10.313,39.312 "/>
<path fill="none" stroke="#000000" stroke-width="2" stroke-miterlimit="10" d="M57.563,38.562c0,0-3.063-7.938-17.563-8.188
	s-16.813,7.063-17.25,8.188s3.188,7.813,17.406,8.188S57.563,40.187,57.563,38.562z"/>
<path fill="none" stroke="#000000" stroke-width="2" stroke-miterlimit="10" d="M40.139,49.625c0,0,4.798,18.5,10.236,27.688"/>
<path fill="none" stroke="#000000" stroke-width="2" stroke-miterlimit="10" d="M43.25,27.125c0,0,4-12,15.375-21.875"/>
<line fill="none" stroke="#000000" stroke-width="2" stroke-miterlimit="10" x1="34.625" y1="36.5" x2="45.257" y2="36.5"/>
<line fill="none" stroke="#000000" stroke-width="2" stroke-miterlimit="10" x1="34.625" y1="41.916" x2="45.257" y2="41.916"/>
<line fill="none" stroke="#000000" stroke-width="2" stroke-miterlimit="10" x1="48.959" y1="36" x2="48.959" y2="41.916"/>
<line fill="none" stroke="#000000" stroke-width="2" stroke-miterlimit="10" x1="29.875" y1="38.958" x2="48.959" y2="38.958"/>
<line fill="none" stroke="#000000" stroke-width="2" stroke-miterlimit="10" x1="10.313" y1="39.312" x2="22.716" y2="39.312"/>
</svg>
